HIERARCHY
ROOT Hips
{
  OFFSET 47.1999 84.3849 33.4816
  CHANNELS 6 Xposition Yposition Zposition Zrotation Xrotation Yrotation
  JOINT spine
  {
    OFFSET 0 6.24479 0.359107
    CHANNELS 3 Zrotation Xrotation Yrotation
    JOINT spine1
    {
      OFFSET 0 9.06941 0
      CHANNELS 3 Zrotation Xrotation Yrotation
      JOINT spine2
      {
        OFFSET 0 8.69014 0
        CHANNELS 3 Zrotation Xrotation Yrotation
        JOINT Neck
        {
          OFFSET 0 22.3112 1.06372
          CHANNELS 3 Zrotation Xrotation Yrotation
          JOINT Head
          {
            OFFSET 0 6.74081 0
            CHANNELS 3 Zrotation Xrotation Yrotation
            End Site
            {
              OFFSET 0 16.3165 -5.38097
            }
          }
        }
        JOINT RightShoulder
        {
          OFFSET -3.65916 9.38468 -0.509514
          CHANNELS 3 Zrotation Xrotation Yrotation
          JOINT RightArm
          {
            OFFSET 0 12.3089 0
            CHANNELS 3 Zrotation Xrotation Yrotation
            JOINT RightArmRoll
            {
              OFFSET 0 6.21375 0
              CHANNELS 3 Zrotation Xrotation Yrotation
              JOINT RightForeArm
              {
                OFFSET 0 18.0985 0
                CHANNELS 3 Zrotation Xrotation Yrotation
                JOINT RightForeArmRoll
                {
                  OFFSET 0 6.97279 0
                  CHANNELS 3 Zrotation Xrotation Yrotation
                  JOINT RightHand
                  {
                    OFFSET 0 13.9929 0
                    CHANNELS 3 Zrotation Xrotation Yrotation
                    End Site
                    {
                      OFFSET 0 0 0
                    }
                  }
                }
              }
            }
          }
        }
        JOINT LeftShoulder
        {
          OFFSET 3.65916 9.38468 -0.509514
          CHANNELS 3 Zrotation Xrotation Yrotation
          JOINT LeftArm
          {
            OFFSET 0 12.3089 0
            CHANNELS 3 Zrotation Xrotation Yrotation
            JOINT LeftArmRoll
            {
              OFFSET 0 6.21375 0
              CHANNELS 3 Zrotation Xrotation Yrotation
              JOINT LeftForeArm
              {
                OFFSET 0 18.0985 0
                CHANNELS 3 Zrotation Xrotation Yrotation
                JOINT LeftForeArmRoll
                {
                  OFFSET 0 6.9728 0
                  CHANNELS 3 Zrotation Xrotation Yrotation
                  JOINT LeftHand
                  {
                    OFFSET 0 13.9929 0
                    CHANNELS 3 Zrotation Xrotation Yrotation
                    End Site
                    {
                      OFFSET 0 0 0
                    }
                  }
                }
              }
            }
          }
        }
      }
    }
  }
  JOINT RightUpLeg
  {
    OFFSET -5.53515 -1.015 -0.851454
    CHANNELS 3 Zrotation Xrotation Yrotation
    JOINT RightUpLegRoll
    {
      OFFSET 0 16.4075 0
      CHANNELS 3 Zrotation Xrotation Yrotation
      JOINT RightLeg
      {
        OFFSET 0 -20.3181 0
        CHANNELS 3 Zrotation Xrotation Yrotation
        JOINT RightLegRoll
        {
          OFFSET 0 20.3846 0
          CHANNELS 3 Zrotation Xrotation Yrotation
          JOINT RightFoot
          {
            OFFSET 0 16.9668 0
            CHANNELS 3 Zrotation Xrotation Yrotation
            JOINT RightToeBase
            {
              OFFSET 0 14.1834 0
              CHANNELS 3 Zrotation Xrotation Yrotation
              End Site
              {
                OFFSET 0.0060118 6.86889 -0.791746
              }
            }
          }
        }
      }
    }
  }
  JOINT LeftUpLeg
  {
    OFFSET 5.53515 -1.015 -0.851454
    CHANNELS 3 Zrotation Xrotation Yrotation
    JOINT LeftUpLegRoll
    {
      OFFSET 0 16.4076 0
      CHANNELS 3 Zrotation Xrotation Yrotation
      JOINT LeftLeg
      {
        OFFSET 0 20.3181 0
        CHANNELS 3 Zrotation Xrotation Yrotation
        JOINT LeftLegRoll
        {
          OFFSET 0 20.5731 0
          CHANNELS 3 Zrotation Xrotation Yrotation
          JOINT LeftFoot
          {
            OFFSET 0 16.7783 0
            CHANNELS 3 Zrotation Xrotation Yrotation
            JOINT LeftToeBase
            {
              OFFSET 0 14.1834 0
              CHANNELS 3 Zrotation Xrotation Yrotation
              End Site
              {
                OFFSET -0.0269423 6.86889 -0.791746
              }
            }
          }
        }
      }
    }
  }
}
MOTION
Frames: 9
Frame Time: 0.00208333
49.559 71.2378 24.4635 -3.38354 19.9198 -2.88891 -0.295638 -0.514051 -0.0746643 -0.591906 2.97491 -0.113836 -0.591256 4.61993 -0.104001 10.173 -35.2031 2.8189 -5.07501 12.3438 1.59324 65.8472 -5.74574 -3.90478 125.164 36.6317 -27.2835 3.18055e-015 -1.59028e-015 -0 24.4614 14.5476 -2.75938 -3.03322e-006 1.30726e-005 -3.00002 8.02891 -4.95138 0.69766 -63.0144 -8.20399 5.1834 -125.86 39.7923 18.6703 -3.10274e-005 1.21442e-006 -2.80331e-006 -13.795 8.91678 1.23489 9.45986e-006 2.6114e-005 3 -8.02904 -4.95155 -0.697716 -161.007 59.7133 -19.58 -180 1.52567e-005 179.049 -172.654 68.7396 174.034 -1.5033e-006 1.23405e-006 2.36571 -72.1056 83.5694 75.5586 8.19166 26.7067 -1.62676 -172.753 60.9011 -2.59124 4.57705e-006 1.05463e-005 -1.15529 21.3497 -77.212 18.6965 -1.83853e-006 -1.86183e-007 -3.50339 60.7436 83.3205 -65.5555 -7.82951 33.2273 -1.99806 
49.5536 71.3027 24.5214 -3.38516 19.8386 -2.87097 -0.29601 -0.517938 -0.0761829 -0.592644 2.96714 -0.116554 -0.591961 4.61216 -0.106709 10.1769 -35.1307 2.82213 -5.10927 12.3542 1.60544 65.9127 -5.74455 -3.90761 125.004 36.549 -27.1091 -3.18055e-015 -3.18055e-015 -1.59028e-015 24.4266 14.5239 -2.75049 -3.03322e-006 1.30726e-005 -3.00002 8.02891 -4.95138 0.69766 -63.0087 -8.2472 5.20848 -125.798 39.6387 18.559 -3.10274e-005 1.21442e-006 -2.80331e-006 -13.7924 8.99465 1.24587 9.45986e-006 2.6114e-005 3 -8.02904 -4.95155 -0.697716 -161.192 59.5061 -19.3821 -180 1.52567e-005 179.051 -172.771 68.5769 174.125 -1.5033e-006 1.23405e-006 2.35434 -71.9998 83.5645 75.4477 8.19278 26.7256 -1.64575 -172.783 60.6828 -2.56177 4.57705e-006 1.05463e-005 -1.15488 21.0581 -77.0598 18.4175 -1.83853e-006 -1.86183e-007 -3.4955 60.6999 83.316 -65.505 -7.83104 33.2174 -1.99004 
49.549 71.3723 24.5645 -3.38678 19.7592 -2.85351 -0.296297 -0.522271 -0.0777333 -0.593183 2.95849 -0.119229 -0.592467 4.6035 -0.109378 10.1782 -35.0563 2.82448 -5.14208 12.3645 1.61729 65.9777 -5.74138 -3.90935 124.843 36.4664 -26.9261 8.74653e-015 -1.59028e-015 3.18055e-015 24.3864 14.4985 -2.74115 -3.03322e-006 1.30726e-005 -3.00002 8.02891 -4.95138 0.69766 -63.0039 -8.28935 5.23296 -125.737 39.4843 18.4411 -3.10274e-005 1.21442e-006 -2.80331e-006 -13.7858 9.07278 1.2571 9.45986e-006 2.6114e-005 3 -8.02904 -4.95155 -0.697716 -161.371 59.2994 -19.1912 -180 1.52567e-005 179.052 -172.884 68.4129 174.215 -1.5033e-006 1.23405e-006 2.34308 -71.8935 83.5595 75.3363 8.19412 26.7478 -1.66806 -172.81 60.467 -2.53572 4.57705e-006 1.05463e-005 -1.15435 20.7689 -76.907 18.1415 -1.83853e-006 -1.86183e-007 -3.48731 60.6483 83.311 -65.4462 -7.83275 33.208 -1.98143 
49.5372 71.4336 24.624 -3.38852 19.6818 -2.83644 -0.296446 -0.527077 -0.0794057 -0.593384 2.94888 -0.122027 -0.592633 4.5939 -0.112175 10.1758 -34.9803 2.82577 -5.17305 12.3749 1.62868 66.0414 -5.73621 -3.90993 124.681 36.3832 -26.7355 3.57812e-015 -3.18055e-015 1.59028e-015 24.3414 14.4719 -2.73148 -3.03322e-006 1.30726e-005 -3.00002 8.02891 -4.95138 0.69766 -63.0003 -8.33016 5.25663 -125.674 39.3292 18.3169 -3.10274e-005 1.21442e-006 -2.80331e-006 -13.7764 9.15107 1.26861 9.45986e-006 2.6114e-005 3 -8.02904 -4.95155 -0.697716 -161.543 59.0935 -19.0077 -180 1.52567e-005 179.054 -172.994 68.2478 174.302 -1.5033e-006 1.23405e-006 2.33191 -71.7892 83.5545 75.2268 8.19568 26.7727 -1.69331 -172.834 60.254 -2.51272 4.57705e-006 1.05463e-005 -1.15372 20.4834 -76.7538 17.8698 -1.83853e-006 -1.86183e-007 -3.47891 60.5884 83.3052 -65.3787 -7.8346 33.1987 -1.97263 
49.5356 71.5043 24.6781 -3.39034 19.6062 -2.81972 -0.29648 -0.532288 -0.0811723 -0.593308 2.93847 -0.124911 -0.59252 4.58348 -0.115062 10.1704 -34.9029 2.82616 -5.20262 12.3856 1.63969 66.1042 -5.72926 -3.90948 124.519 36.2995 -26.5383 -7.95139e-015 -3.18055e-015 -1.59028e-015 24.292 14.4443 -2.72152 -3.03322e-006 1.30726e-005 -3.00002 8.02891 -4.95138 0.69766 -62.9975 -8.36995 5.2797 -125.611 39.1735 18.1875 -3.10274e-005 1.21442e-006 -2.80331e-006 -13.7644 9.22966 1.28037 9.45986e-006 2.6114e-005 3 -8.02904 -4.95155 -0.697716 -161.709 58.8883 -18.8306 -180 1.52567e-005 179.056 -173.101 68.0817 174.387 -1.5033e-006 1.23405e-006 2.32079 -71.6853 83.5495 75.1177 8.19745 26.8003 -1.72133 -172.855 60.0435 -2.49252 4.57705e-006 1.05463e-005 -1.15301 20.2015 -76.6 17.6019 -1.83853e-006 -1.86183e-007 -3.4703 60.5213 83.2989 -65.3035 -7.83656 33.1895 -1.96362 
49.5301 71.5707 24.7286 -3.39224 19.5321 -2.80328 -0.296424 -0.537833 -0.0830051 -0.593019 2.92739 -0.127845 -0.592194 4.5724 -0.118004 10.1626 -34.8242 2.82582 -5.23118 12.3965 1.65037 66.1662 -5.72076 -3.90816 124.357 36.2154 -26.3354 7.95139e-015 -3.18055e-015 3.18055e-015 24.2389 14.4158 -2.71131 -3.03322e-006 1.30726e-005 -3.00002 8.02891 -4.95138 0.69766 -62.995 -8.40906 5.30236 -125.547 39.0172 18.0536 -3.10274e-005 1.21442e-006 -2.80331e-006 -13.7501 9.30864 1.29236 9.45986e-006 2.6114e-005 3 -8.02904 -4.95155 -0.697716 -161.871 58.6838 -18.659 -180 1.52567e-005 179.057 -173.206 67.9144 174.471 -1.5033e-006 1.23405e-006 2.30967 -71.5803 83.5444 75.0074 8.19941 26.8302 -1.75191 -172.873 59.8351 -2.47489 4.57705e-006 1.05463e-005 -1.15222 19.9229 -76.4456 17.3378 -1.83853e-006 -1.86183e-007 -3.46149 60.4477 83.2921 -65.2215 -7.83864 33.1803 -1.95438 
49.518 71.6416 24.7785 -3.39419 19.4594 -2.78707 -0.296303 -0.543642 -0.0848763 -0.592579 2.91578 -0.130793 -0.591715 4.56079 -0.120961 10.1531 -34.7446 2.8249 -5.25916 12.4077 1.6608 66.2278 -5.71095 -3.90609 124.194 36.131 -26.1276 -9.54166e-015 -4.77083e-015 -1.59028e-015 24.1825 14.3865 -2.70089 -3.03322e-006 1.30726e-005 -3.00002 8.02891 -4.95138 0.69766 -62.9923 -8.44785 5.3248 -125.484 38.8601 17.9164 -3.10274e-005 1.21442e-006 -2.80331e-006 -13.7336 9.38814 1.30455 9.45986e-006 2.6114e-005 3 -8.02904 -4.95155 -0.697716 -162.028 58.4798 -18.4918 -180 1.52567e-005 179.059 -173.31 67.7458 174.554 -1.5033e-006 1.23405e-006 2.2985 -71.4729 83.5391 74.8946 8.20155 26.8622 -1.78486 -172.889 59.6285 -2.45961 4.57705e-006 1.05463e-005 -1.15135 19.6473 -76.2904 17.0771 -1.83853e-006 -1.86183e-007 -3.45248 60.3689 83.2848 -65.1339 -7.84082 33.1709 -1.94488 
49.5146 71.7113 24.8338 -3.39617 19.3878 -2.77105 -0.296139 -0.549646 -0.086758 -0.59205 2.90378 -0.133718 -0.591149 4.5488 -0.123898 10.1425 -34.6642 2.82357 -5.28696 12.4192 1.67105 66.2891 -5.70006 -3.90343 124.031 36.0465 -25.9159 2.66371e-014 1.59028e-015 -0 24.1234 14.3565 -2.69029 -3.03322e-006 1.30726e-005 -3.00002 8.02891 -4.95138 0.69766 -62.989 -8.48663 5.34724 -125.422 38.7023 17.7767 -3.10274e-005 1.21442e-006 -2.80331e-006 -13.7151 9.46828 1.31691 9.45986e-006 2.6114e-005 3 -8.02904 -4.95155 -0.697716 -162.182 58.2763 -18.3281 -180 1.52567e-005 179.061 -173.413 67.5757 174.635 -1.5033e-006 1.23405e-006 2.28725 -71.3618 83.5336 74.778 8.20387 26.8963 -1.81998 -172.903 59.4233 -2.44646 4.57705e-006 1.05463e-005 -1.1504 19.3747 -76.1343 16.8197 -1.83853e-006 -1.86183e-007 -3.44328 60.2855 83.2771 -65.0415 -7.8431 33.1614 -1.9351 
49.5035 71.7706 24.8715 -3.39816 19.3171 -2.75515 -0.295957 -0.555775 -0.0886222 -0.591495 2.89153 -0.136585 -0.590556 4.53655 -0.126777 10.1316 -34.5833 2.82199 -5.31501 12.4309 1.68119 66.3503 -5.68834 -3.90031 123.868 35.9618 -25.7013 7.95139e-016 0 1.59028e-015 24.0622 14.326 -2.67955 -3.03322e-006 1.30726e-005 -3.00002 8.02891 -4.95138 0.69766 -62.9846 -8.52574 5.36987 -125.362 38.5438 17.6355 -3.10274e-005 1.21442e-006 -2.80331e-006 -13.6947 9.54918 1.32942 9.45986e-006 2.6114e-005 3 -8.02904 -4.95155 -0.697716 -162.333 58.0733 -18.1671 -180 1.52567e-005 179.063 -173.515 67.4042 174.716 -1.5033e-006 1.23405e-006 2.27586 -71.2454 83.5278 74.6558 8.20636 26.9321 -1.85708 -172.915 59.2191 -2.43524 4.57705e-006 1.05463e-005 -1.1494 19.1048 -75.9771 16.5654 -1.83853e-006 -1.86183e-007 -3.4339 60.1988 83.2691 -64.9453 -7.84547 33.1515 -1.92501 
